<svg xmlns:osb="http://www.openswatchbook.org/uri/2009/osb" xmlns="http://www.w3.org/2000/svg" xmlns:xlink="http://www.w3.org/1999/xlink" width="297mm" height="297mm" viewBox="0 0 297 297" id="svg8"><defs id="defs2"><marker orient="auto" id="marker24232" overflow="visible"><path id="path24230" d="M-1.2 0l-1 1 3.5-1-3.5-1z" fill="#277553" fill-rule="evenodd" stroke="#277553" stroke-width=".267"/></marker><marker orient="auto" id="marker24096" overflow="visible"><path id="path24094" d="M-1.2 0l-1 1 3.5-1-3.5-1z" fill="#277553" fill-rule="evenodd" stroke="#277553" stroke-width=".267"/></marker><marker orient="auto" id="Arrow1Mend" overflow="visible"><path id="path6055" d="M-4 0l-2 2 7-2-7-2z" fill="#277553" fill-rule="evenodd" stroke="#277553" stroke-width=".533"/></marker><marker orient="auto" id="Arrow1Mstart" overflow="visible"><path id="path6052" d="M4 0l2-2-7 2 7 2z" fill-rule="evenodd" stroke="#000" stroke-width=".533"/></marker><marker orient="auto" id="marker13644" overflow="visible"><path id="path13642" d="M1.2 0l1-1-3.5 1 3.5 1z" fill="#434b48" fill-rule="evenodd" stroke="#277553" stroke-width=".267"/></marker><marker orient="auto" id="marker13538" overflow="visible"><path id="path13536" d="M1.2 0l1-1-3.5 1 3.5 1z" fill="#434b48" fill-rule="evenodd" stroke="#277553" stroke-width=".267"/></marker><marker id="marker10358" orient="auto" overflow="visible"><path d="M1.2 0l1-1-3.5 1 3.5 1z" id="path10356" fill="#434b48" fill-rule="evenodd" stroke="#277553" stroke-width=".267"/></marker><marker id="marker10264" orient="auto" overflow="visible"><path d="M1.2 0l1-1-3.5 1 3.5 1z" id="path10262" fill="#434b48" fill-rule="evenodd" stroke="#277553" stroke-width=".267"/></marker><marker orient="auto" id="marker9294" overflow="visible"><path id="path9292" d="M1.2 0l1-1-3.5 1 3.5 1z" fill="#434b48" fill-rule="evenodd" stroke="#277553" stroke-width=".267"/></marker><marker orient="auto" id="Arrow1Sstart" overflow="visible"><path id="path6058" d="M1.2 0l1-1-3.5 1 3.5 1z" fill="#434b48" fill-rule="evenodd" stroke="#277553" stroke-width=".267"/></marker><marker orient="auto" id="marker8976" overflow="visible"><path id="path8974" d="M-1.2 0l-1 1 3.5-1-3.5-1z" fill="#434b48" fill-rule="evenodd" stroke="#277553" stroke-width=".267"/></marker><marker orient="auto" id="Arrow1Send" overflow="visible"><path id="path6061" d="M-1.2 0l-1 1 3.5-1-3.5-1z" fill="#434b48" fill-rule="evenodd" stroke="#277553" stroke-width=".267"/></marker><marker orient="auto" id="Tail" overflow="visible"><g id="g6094" transform="scale(-1.2)" fill="#434b48" stroke="#277553" fill-rule="evenodd" stroke-width=".8" stroke-linecap="round"><path id="path6082" d="M-3.805-3.959L.544 0"/><path id="path6084" d="M-1.287-3.959L3.062 0"/><path id="path6086" d="M1.305-3.959L5.654 0"/><path id="path6088" d="M-3.805 4.178L.544.22"/><path id="path6090" d="M-1.287 4.178L3.062.22"/><path id="path6092" d="M1.305 4.178L5.654.22"/></g></marker><marker orient="auto" id="marker6466" overflow="visible"><path id="path6464" d="M10.69 4.437L-1.328.017 10.69-4.401c-1.92 2.61-1.909 6.18 0 8.84z" fill="#434b48" fill-rule="evenodd" stroke="#277553" stroke-width=".688" stroke-linejoin="round"/></marker><marker orient="auto" id="marker6414" overflow="visible"><path id="path6412" d="M-10.69-4.437L1.328-.017-10.69 4.401c1.92-2.61 1.909-6.18 0-8.84z" fill="#434b48" fill-rule="evenodd" stroke="#277553" stroke-width=".688" stroke-linejoin="round"/></marker><marker orient="auto" id="Arrow2Lstart" overflow="visible"><path id="path6064" d="M10.69 4.437L-1.328.017 10.69-4.401c-1.92 2.61-1.909 6.18 0 8.84z" fill="#434b48" fill-rule="evenodd" stroke="#277553" stroke-width=".688" stroke-linejoin="round"/></marker><marker orient="auto" id="marker6330" overflow="visible"><path id="path6328" d="M-10.69-4.437L1.328-.017-10.69 4.401c1.92-2.61 1.909-6.18 0-8.84z" fill="#434b48" fill-rule="evenodd" stroke="#277553" stroke-width=".688" stroke-linejoin="round"/></marker><marker orient="auto" id="Arrow2Lend" overflow="visible"><path id="path6067" d="M-10.69-4.437L1.328-.017-10.69 4.401c1.92-2.61 1.909-6.18 0-8.84z" fill="#434b48" fill-rule="evenodd" stroke="#277553" stroke-width=".688" stroke-linejoin="round"/></marker><linearGradient id="linearGradient6042" osb:paint="solid"><stop offset="0" id="stop6040" stop-color="#434b48"/></linearGradient><linearGradient id="linearGradient5976" osb:paint="solid"><stop offset="0" id="stop5974" stop-color="#009e5a"/></linearGradient><linearGradient id="linearGradient5955" osb:paint="solid"><stop offset="0" id="stop5953" stop-color="#b6006e"/></linearGradient><linearGradient xlink:href="#linearGradient5976" id="linearGradient5978" x1="61.34" y1="157.218" x2="154.614" y2="157.218" gradientUnits="userSpaceOnUse" gradientTransform="translate(-1.604 24.054)"/><linearGradient xlink:href="#linearGradient6042" id="linearGradient6044" x1="106.375" y1="52.785" x2="106.695" y2="52.785" gradientUnits="userSpaceOnUse" gradientTransform="matrix(.32568 0 0 1.63466 71.398 -25.211)"/><linearGradient xlink:href="#linearGradient6042" id="linearGradient11008" gradientUnits="userSpaceOnUse" gradientTransform="matrix(.32568 0 0 1.63466 71.096 63.382)" x1="106.375" y1="52.785" x2="106.695" y2="52.785"/><linearGradient xlink:href="#linearGradient6042" id="linearGradient14270" gradientUnits="userSpaceOnUse" gradientTransform="matrix(.32568 0 0 1.63466 71.497 129.532)" x1="106.375" y1="52.785" x2="106.695" y2="52.785"/></defs><g id="layer1"><g id="g13500"><g id="g13462"><rect id="rect3680" width="77.508" height="27.796" x="65.214" y="19.04" ry="13.363" fill="#e74200" stroke="#b6006e" stroke-width=".265"/></g><text id="text6001" y="36.679" x="78.577" style="line-height:1.25" font-weight="400" font-size="10.583" font-family="sans-serif" letter-spacing="0" word-spacing="0" stroke-width=".265"><tspan y="36.679" x="78.577" id="tspan5999" fill="#fff">start</tspan></text></g><g id="g13478" transform="translate(-6.414 21.916)"><g transform="translate(-.267 -.802)" id="g13468"><g id="g13471"><rect id="rect5989" width="77.508" height="27.796" x="74.835" y="207.732" ry="13.363" fill="#e74200" stroke="#b6006e" stroke-width=".265"/></g></g><text id="text6005" y="224.837" x="87.397" style="line-height:1.25" font-weight="400" font-size="10.583" font-family="sans-serif" letter-spacing="0" word-spacing="0" stroke-width=".265"><tspan y="224.837" x="87.397" id="tspan6003" fill="#fff">end</tspan></text></g><g id="g13494"><g id="g13465"><path id="rect5970" transform="matrix(.85742 -.51461 .85742 .51461 0 0)" fill="#b6006e" stroke="#b6006e" stroke-width=".218" d="M-65.514 136.117h52.899v52.459h-52.899z"/></g><text id="text6009" y="106.437" x="77.375" style="line-height:1.25" font-weight="400" font-size="10.583" font-family="sans-serif" letter-spacing="0" word-spacing="0" stroke-width=".265"><tspan y="106.437" x="77.375" id="tspan6007" fill="#fff">condition</tspan></text></g><g id="g13488"><g transform="translate(1.604 .802)" id="g13459"><g id="g13481"><path id="rect5972" fill="url(#linearGradient5978)" stroke="#b6006e" stroke-width=".265" d="M59.868 162.831h93.01v36.883h-93.01z"/></g></g><text id="text6013" y="185.281" x="75.103" style="line-height:1.25" font-weight="400" font-size="10.583" font-family="sans-serif" letter-spacing="0" word-spacing="0" stroke-width=".265"><tspan y="185.281" x="75.103" id="tspan6011" fill="#fff">statements</tspan></text></g><text style="line-height:1.25" x="152.878" y="95.479" id="text6017" font-weight="400" font-size="10.583" font-family="sans-serif" letter-spacing="0" word-spacing="0" stroke-width=".265"><tspan id="tspan6015" x="152.878" y="95.479">false</tspan></text><path d="M105.97 73.302l.25-26.861" id="path6038" fill="url(#linearGradient6044)" stroke="#277553" stroke-width="2" stroke-miterlimit="1.3" marker-start="url(#marker9294)" marker-end="url(#Arrow1Sstart)"/><path id="path10260" d="M105.668 159.891l-.219-26.46" fill="url(#linearGradient11008)" stroke="#277553" stroke-width="2" stroke-miterlimit="1.3" marker-start="url(#marker10264)" marker-end="url(#marker10358)"/><text style="line-height:1.25" x="76.706" y="140.915" id="text13504" font-weight="400" font-size="10.583" font-family="sans-serif" letter-spacing="0" word-spacing="0" stroke-width=".265"><tspan id="tspan13502" x="76.706" y="140.915">true</tspan></text><path d="M106.069 232.722l-.002-7.751.117-18.977" id="path13534" fill="url(#linearGradient14270)" stroke="#277553" stroke-width="2" stroke-miterlimit="1.3" marker-start="url(#marker13538)" marker-end="url(#marker13644)"/><path d="M150.873 103.535l13.364.496.134 139.782-14.166.268" id="path23836" fill="none" stroke="#277553" stroke-width="2" marker-start="url(#marker24096)" marker-end="url(#marker24232)"/><text style="line-height:1.25" x="191.9" y="165.503" id="text33651" font-weight="400" font-size="10.583" font-family="sans-serif" letter-spacing="0" word-spacing="0" fill="#564d53" fill-opacity=".941" stroke-width=".265"><tspan id="tspan33649" x="191.9" y="165.503">if (condition) {</tspan><tspan x="191.9" y="178.733" id="tspan33653"> // statements</tspan><tspan x="191.9" y="191.962" id="tspan33655">}</tspan></text></g></svg>