<svg xmlns:osb="http://www.openswatchbook.org/uri/2009/osb" xmlns="http://www.w3.org/2000/svg" xmlns:xlink="http://www.w3.org/1999/xlink" width="360mm" height="460mm" viewBox="0 0 360 460" id="svg8"><defs id="defs2"><marker orient="auto" id="marker66210" overflow="visible"><path id="path66208" d="M1.2 0l1-1-3.5 1 3.5 1z" fill="#434b48" fill-rule="evenodd" stroke="#277553" stroke-width=".267"/></marker><marker orient="auto" id="marker65840" overflow="visible"><path id="path65838" d="M1.2 0l1-1-3.5 1 3.5 1z" fill="#434b48" fill-rule="evenodd" stroke="#277553" stroke-width=".267"/></marker><marker orient="auto" id="marker64056" overflow="visible"><path id="path64054" d="M1.2 0l1-1-3.5 1 3.5 1z" fill="#434b48" fill-rule="evenodd" stroke="#277553" stroke-width=".267"/></marker><marker orient="auto" id="marker63686" overflow="visible"><path id="path63684" d="M1.2 0l1-1-3.5 1 3.5 1z" fill="#434b48" fill-rule="evenodd" stroke="#277553" stroke-width=".267"/></marker><marker id="marker62850" orient="auto" overflow="visible"><path d="M1.2 0l1-1-3.5 1 3.5 1z" id="path62848" fill="#434b48" fill-rule="evenodd" stroke="#277553" stroke-width=".267"/></marker><marker orient="auto" id="marker61704" overflow="visible"><path id="path61702" d="M1.2 0l1-1-3.5 1 3.5 1z" fill="#434b48" fill-rule="evenodd" stroke="#277553" stroke-width=".267"/></marker><marker id="marker61004" orient="auto" overflow="visible"><path d="M1.2 0l1-1-3.5 1 3.5 1z" id="path61002" fill="#434b48" fill-rule="evenodd" stroke="#277553" stroke-width=".267"/></marker><marker id="marker60670" orient="auto" overflow="visible"><path d="M1.2 0l1-1-3.5 1 3.5 1z" id="path60668" fill="#434b48" fill-rule="evenodd" stroke="#277553" stroke-width=".267"/></marker><marker orient="auto" id="marker59266" overflow="visible"><path id="path59264" d="M1.2 0l1-1-3.5 1 3.5 1z" fill="#434b48" fill-rule="evenodd" stroke="#277553" stroke-width=".267"/></marker><marker orient="auto" id="marker58944" overflow="visible"><path id="path58942" d="M1.2 0l1-1-3.5 1 3.5 1z" fill="#434b48" fill-rule="evenodd" stroke="#277553" stroke-width=".267"/></marker><marker orient="auto" id="marker57408" overflow="visible"><path id="path57406" d="M1.2 0l1-1-3.5 1 3.5 1z" fill="#434b48" fill-rule="evenodd" stroke="#277553" stroke-width=".267"/></marker><marker orient="auto" id="marker57098" overflow="visible"><path id="path57096" d="M1.2 0l1-1-3.5 1 3.5 1z" fill="#434b48" fill-rule="evenodd" stroke="#277553" stroke-width=".267"/></marker><linearGradient id="linearGradient56692" osb:paint="solid"><stop offset="0" id="stop56690" stop-color="#277553"/></linearGradient><linearGradient id="linearGradient56686" osb:paint="solid"><stop offset="0" id="stop56684" stop-color="#6e445d"/></linearGradient><linearGradient id="linearGradient56680" osb:paint="solid"><stop offset="0" id="stop56678" stop-color="#277553"/></linearGradient><linearGradient id="linearGradient56674" osb:paint="solid"><stop offset="0" id="stop56672" stop-color="#95d900"/></linearGradient><marker orient="auto" id="marker55826" overflow="visible"><path id="path55824" d="M1.2 0l1-1-3.5 1 3.5 1z" fill="#434b48" fill-rule="evenodd" stroke="#277553" stroke-width=".267"/></marker><marker orient="auto" id="marker55528" overflow="visible"><path id="path55526" d="M1.2 0l1-1-3.5 1 3.5 1z" fill="#434b48" fill-rule="evenodd" stroke="#277553" stroke-width=".267"/></marker><marker id="marker54306" orient="auto" overflow="visible"><path d="M1.2 0l1-1-3.5 1 3.5 1z" id="path54304" fill="#434b48" fill-rule="evenodd" stroke="#277553" stroke-width=".267"/></marker><marker id="marker54020" orient="auto" overflow="visible"><path d="M1.2 0l1-1-3.5 1 3.5 1z" id="path54018" fill="#434b48" fill-rule="evenodd" stroke="#277553" stroke-width=".267"/></marker><marker orient="auto" id="marker53270" overflow="visible"><path id="path53268" d="M1.2 0l1-1-3.5 1 3.5 1z" fill="#434b48" fill-rule="evenodd" stroke="#277553" stroke-width=".267"/></marker><marker orient="auto" id="marker52996" overflow="visible"><path id="path52994" d="M1.2 0l1-1-3.5 1 3.5 1z" fill="#434b48" fill-rule="evenodd" stroke="#277553" stroke-width=".267"/></marker><marker orient="auto" id="marker52068" overflow="visible"><path id="path52066" d="M1.2 0l1-1-3.5 1 3.5 1z" fill="#434b48" fill-rule="evenodd" stroke="#277553" stroke-width=".267"/></marker><marker orient="auto" id="marker51806" overflow="visible"><path id="path51804" d="M1.2 0l1-1-3.5 1 3.5 1z" fill="#434b48" fill-rule="evenodd" stroke="#277553" stroke-width=".267"/></marker><linearGradient id="linearGradient51800" osb:paint="solid"><stop offset="0" id="stop51798" stop-color="#95d900"/></linearGradient><linearGradient id="linearGradient51794" osb:paint="solid"><stop offset="0" id="stop51792"/></linearGradient><marker id="marker51046" orient="auto" overflow="visible"><path d="M-1.2 0l-1 1 3.5-1-3.5-1z" id="path51044" fill="#277553" fill-rule="evenodd" stroke="#277553" stroke-width=".267"/></marker><marker id="marker50784" orient="auto" overflow="visible"><path d="M-1.2 0l-1 1 3.5-1-3.5-1z" id="path50782" fill="#277553" fill-rule="evenodd" stroke="#277553" stroke-width=".267"/></marker><marker id="marker47199" orient="auto" overflow="visible"><path d="M1.2 0l1-1-3.5 1 3.5 1z" id="path47197" fill="#434b48" fill-rule="evenodd" stroke="#277553" stroke-width=".267"/></marker><marker id="marker46937" orient="auto" overflow="visible"><path d="M1.2 0l1-1-3.5 1 3.5 1z" id="path46935" fill="#434b48" fill-rule="evenodd" stroke="#277553" stroke-width=".267"/></marker><marker id="marker45685" orient="auto" overflow="visible"><path d="M1.2 0l1-1-3.5 1 3.5 1z" id="path45683" fill="#434b48" fill-rule="evenodd" stroke="#277553" stroke-width=".267"/></marker><marker id="marker45435" orient="auto" overflow="visible"><path d="M1.2 0l1-1-3.5 1 3.5 1z" id="path45433" fill="#434b48" fill-rule="evenodd" stroke="#277553" stroke-width=".267"/></marker><marker id="marker44687" orient="auto" overflow="visible"><path d="M1.2 0l1-1-3.5 1 3.5 1z" id="path44685" fill="#434b48" fill-rule="evenodd" stroke="#277553" stroke-width=".267"/></marker><marker id="marker44449" orient="auto" overflow="visible"><path d="M1.2 0l1-1-3.5 1 3.5 1z" id="path44447" fill="#434b48" fill-rule="evenodd" stroke="#277553" stroke-width=".267"/></marker><marker id="marker43329" orient="auto" overflow="visible"><path d="M1.2 0l1-1-3.5 1 3.5 1z" id="path43327" fill="#434b48" fill-rule="evenodd" stroke="#277553" stroke-width=".267"/></marker><marker id="marker43103" orient="auto" overflow="visible"><path d="M1.2 0l1-1-3.5 1 3.5 1z" id="path43101" fill="#434b48" fill-rule="evenodd" stroke="#277553" stroke-width=".267"/></marker><marker id="marker41527" orient="auto" overflow="visible"><path d="M1.2 0l1-1-3.5 1 3.5 1z" id="path41525" fill="#434b48" fill-rule="evenodd" stroke="#277553" stroke-width=".267"/></marker><marker id="marker41313" orient="auto" overflow="visible"><path d="M1.2 0l1-1-3.5 1 3.5 1z" id="path41311" fill="#434b48" fill-rule="evenodd" stroke="#277553" stroke-width=".267"/></marker><marker orient="auto" id="marker40963" overflow="visible"><path id="path40961" d="M-1.2 0l-1 1 3.5-1-3.5-1z" fill="#277553" fill-rule="evenodd" stroke="#277553" stroke-width=".267"/></marker><marker orient="auto" id="marker40761" overflow="visible"><path id="path40759" d="M-1.2 0l-1 1 3.5-1-3.5-1z" fill="#277553" fill-rule="evenodd" stroke="#277553" stroke-width=".267"/></marker><marker orient="auto" id="marker40212" overflow="visible"><path id="path40210" d="M-1.2 0l-1 1 3.5-1-3.5-1z" fill="#277553" fill-rule="evenodd" stroke="#277553" stroke-width=".267"/></marker><marker orient="auto" id="marker40022" overflow="visible"><path id="path40020" d="M-1.2 0l-1 1 3.5-1-3.5-1z" fill="#277553" fill-rule="evenodd" stroke="#277553" stroke-width=".267"/></marker><marker orient="auto" id="marker37143" overflow="visible"><path id="path37141" d="M-1.2 0l-1 1 3.5-1-3.5-1z" fill="#277553" fill-rule="evenodd" stroke="#277553" stroke-width=".267"/></marker><marker orient="auto" id="marker36983" overflow="visible"><path id="path36981" d="M-1.2 0l-1 1 3.5-1-3.5-1z" fill="#277553" fill-rule="evenodd" stroke="#277553" stroke-width=".267"/></marker><linearGradient id="linearGradient36977" osb:paint="solid"><stop offset="0" id="stop36975" stop-color="#277553"/></linearGradient><linearGradient id="linearGradient35245" osb:paint="solid"><stop offset="0" id="stop35243" stop-color="#277553"/></linearGradient><marker orient="auto" id="marker24232" overflow="visible"><path id="path24230" d="M-1.2 0l-1 1 3.5-1-3.5-1z" fill="#277553" fill-rule="evenodd" stroke="#277553" stroke-width=".267"/></marker><marker orient="auto" id="marker24096" overflow="visible"><path id="path24094" d="M-1.2 0l-1 1 3.5-1-3.5-1z" fill="#277553" fill-rule="evenodd" stroke="#277553" stroke-width=".267"/></marker><marker orient="auto" id="Arrow1Mend" overflow="visible"><path id="path6055" d="M-4 0l-2 2 7-2-7-2z" fill="#277553" fill-rule="evenodd" stroke="#277553" stroke-width=".533"/></marker><marker orient="auto" id="Arrow1Mstart" overflow="visible"><path id="path6052" d="M4 0l2-2-7 2 7 2z" fill-rule="evenodd" stroke="#000" stroke-width=".533"/></marker><marker orient="auto" id="marker9294" overflow="visible"><path id="path9292" d="M1.2 0l1-1-3.5 1 3.5 1z" fill="#434b48" fill-rule="evenodd" stroke="#277553" stroke-width=".267"/></marker><marker orient="auto" id="Arrow1Sstart" overflow="visible"><path id="path6058" d="M1.2 0l1-1-3.5 1 3.5 1z" fill="#434b48" fill-rule="evenodd" stroke="#277553" stroke-width=".267"/></marker><marker orient="auto" id="marker8976" overflow="visible"><path id="path8974" d="M-1.2 0l-1 1 3.5-1-3.5-1z" fill="#434b48" fill-rule="evenodd" stroke="#277553" stroke-width=".267"/></marker><marker orient="auto" id="Arrow1Send" overflow="visible"><path id="path6061" d="M-1.2 0l-1 1 3.5-1-3.5-1z" fill="#434b48" fill-rule="evenodd" stroke="#277553" stroke-width=".267"/></marker><marker orient="auto" id="Tail" overflow="visible"><g id="g6094" transform="scale(-1.2)" fill="#434b48" stroke="#277553" fill-rule="evenodd" stroke-width=".8" stroke-linecap="round"><path id="path6082" d="M-3.805-3.959L.544 0"/><path id="path6084" d="M-1.287-3.959L3.062 0"/><path id="path6086" d="M1.305-3.959L5.654 0"/><path id="path6088" d="M-3.805 4.178L.544.22"/><path id="path6090" d="M-1.287 4.178L3.062.22"/><path id="path6092" d="M1.305 4.178L5.654.22"/></g></marker><marker orient="auto" id="marker6466" overflow="visible"><path id="path6464" d="M10.69 4.437L-1.328.017 10.69-4.401c-1.92 2.61-1.909 6.18 0 8.84z" fill="#434b48" fill-rule="evenodd" stroke="#277553" stroke-width=".688" stroke-linejoin="round"/></marker><marker orient="auto" id="marker6414" overflow="visible"><path id="path6412" d="M-10.69-4.437L1.328-.017-10.69 4.401c1.92-2.61 1.909-6.18 0-8.84z" fill="#434b48" fill-rule="evenodd" stroke="#277553" stroke-width=".688" stroke-linejoin="round"/></marker><marker orient="auto" id="Arrow2Lstart" overflow="visible"><path id="path6064" d="M10.69 4.437L-1.328.017 10.69-4.401c-1.92 2.61-1.909 6.18 0 8.84z" fill="#434b48" fill-rule="evenodd" stroke="#277553" stroke-width=".688" stroke-linejoin="round"/></marker><marker orient="auto" id="marker6330" overflow="visible"><path id="path6328" d="M-10.69-4.437L1.328-.017-10.69 4.401c1.92-2.61 1.909-6.18 0-8.84z" fill="#434b48" fill-rule="evenodd" stroke="#277553" stroke-width=".688" stroke-linejoin="round"/></marker><marker orient="auto" id="Arrow2Lend" overflow="visible"><path id="path6067" d="M-10.69-4.437L1.328-.017-10.69 4.401c1.92-2.61 1.909-6.18 0-8.84z" fill="#434b48" fill-rule="evenodd" stroke="#277553" stroke-width=".688" stroke-linejoin="round"/></marker><linearGradient id="linearGradient6042" osb:paint="solid"><stop offset="0" id="stop6040" stop-color="#434b48"/></linearGradient><linearGradient id="linearGradient5976" osb:paint="solid"><stop offset="0" id="stop5974" stop-color="#009e5a"/></linearGradient><linearGradient id="linearGradient5955" osb:paint="solid"><stop offset="0" id="stop5953" stop-color="#b6006e"/></linearGradient><linearGradient xlink:href="#linearGradient6042" id="linearGradient6044" x1="106.375" y1="52.785" x2="106.695" y2="52.785" gradientUnits="userSpaceOnUse" gradientTransform="matrix(.32568 0 0 1.63466 24.672 -201.21)"/><linearGradient xlink:href="#linearGradient6042" id="linearGradient11008" gradientUnits="userSpaceOnUse" gradientTransform="matrix(.32568 0 0 1.63466 23.845 104.053)" x1="106.375" y1="52.785" x2="106.695" y2="52.785"/><linearGradient xlink:href="#linearGradient6042" id="linearGradient14270" gradientUnits="userSpaceOnUse" gradientTransform="matrix(.32568 0 0 1.63466 21.25 128.463)" x1="106.375" y1="52.785" x2="106.695" y2="52.785"/><linearGradient xlink:href="#linearGradient6042" id="linearGradient39390" gradientUnits="userSpaceOnUse" gradientTransform="matrix(.00194 -.32568 1.63463 .00972 33.624 19.457)" x1="106.375" y1="52.785" x2="106.695" y2="52.785"/><linearGradient xlink:href="#linearGradient6042" id="linearGradient39392" gradientUnits="userSpaceOnUse" gradientTransform="matrix(0 .32568 -1.63466 0 283.323 241.818)" x1="106.375" y1="52.785" x2="106.695" y2="52.785"/><linearGradient xlink:href="#linearGradient6042" id="linearGradient39396" gradientUnits="userSpaceOnUse" gradientTransform="matrix(.32568 0 0 1.63466 22.962 164.475)" x1="106.375" y1="52.785" x2="106.695" y2="52.785"/><linearGradient xlink:href="#linearGradient6042" id="linearGradient39398" gradientUnits="userSpaceOnUse" gradientTransform="matrix(.32568 0 0 1.63466 134.11 60.913)" x1="106.375" y1="52.785" x2="106.695" y2="52.785"/><linearGradient xlink:href="#linearGradient5976" id="linearGradient39504" gradientUnits="userSpaceOnUse" gradientTransform="translate(-1.604 24.054)" x1="61.34" y1="157.218" x2="154.614" y2="157.218"/><linearGradient xlink:href="#linearGradient6042" id="linearGradient39506" gradientUnits="userSpaceOnUse" gradientTransform="matrix(.32568 0 0 1.63466 24.324 -137.984)" x1="106.375" y1="52.785" x2="106.695" y2="52.785"/><linearGradient xlink:href="#linearGradient6042" id="linearGradient39508" gradientUnits="userSpaceOnUse" gradientTransform="matrix(.32568 0 0 1.63466 238.152 -88.35)" x1="106.375" y1="52.785" x2="106.695" y2="52.785"/><marker orient="auto" id="marker24096-2" overflow="visible"><path id="path24094-9" d="M-1.2 0l-1 1 3.5-1-3.5-1z" fill="#277553" fill-rule="evenodd" stroke="#277553" stroke-width=".267"/></marker><marker orient="auto" id="marker24232-1" overflow="visible"><path id="path24230-2" d="M-1.2 0l-1 1 3.5-1-3.5-1z" fill="#277553" fill-rule="evenodd" stroke="#277553" stroke-width=".267"/></marker><linearGradient xlink:href="#linearGradient51800" id="linearGradient51802" x1="59.736" y1="181.272" x2="153.01" y2="181.272" gradientUnits="userSpaceOnUse"/><linearGradient xlink:href="#linearGradient6042" id="linearGradient55292" gradientUnits="userSpaceOnUse" gradientTransform="matrix(.32568 0 0 1.63466 24.164 -57.305)" x1="106.375" y1="52.785" x2="106.695" y2="52.785"/><linearGradient xlink:href="#linearGradient6042" id="linearGradient55508" gradientUnits="userSpaceOnUse" gradientTransform="matrix(.32568 0 0 1.63466 24.005 23.374)" x1="106.375" y1="52.785" x2="106.695" y2="52.785"/><linearGradient xlink:href="#linearGradient51800" id="linearGradient56416" gradientUnits="userSpaceOnUse" x1="59.736" y1="181.272" x2="153.01" y2="181.272"/><linearGradient xlink:href="#linearGradient51800" id="linearGradient56418" gradientUnits="userSpaceOnUse" x1="59.736" y1="181.272" x2="153.01" y2="181.272"/><linearGradient xlink:href="#linearGradient56686" id="linearGradient56688" x1="59.736" y1="181.272" x2="153.01" y2="181.272" gradientUnits="userSpaceOnUse"/><linearGradient xlink:href="#linearGradient56686" id="linearGradient56704" gradientUnits="userSpaceOnUse" x1="59.736" y1="181.272" x2="153.01" y2="181.272"/><linearGradient xlink:href="#linearGradient56686" id="linearGradient56708" gradientUnits="userSpaceOnUse" x1="59.736" y1="181.272" x2="153.01" y2="181.272"/><linearGradient xlink:href="#linearGradient6042" id="linearGradient60410" gradientUnits="userSpaceOnUse" gradientTransform="matrix(.00194 -.32568 1.63463 .00972 33.464 100.136)" x1="106.375" y1="52.785" x2="106.695" y2="52.785"/><linearGradient xlink:href="#linearGradient6042" id="linearGradient60630" gradientUnits="userSpaceOnUse" gradientTransform="matrix(.00194 -.32568 1.63463 .00972 33.305 180.815)" x1="106.375" y1="52.785" x2="106.695" y2="52.785"/><linearGradient xlink:href="#linearGradient5976" id="linearGradient60642" gradientUnits="userSpaceOnUse" gradientTransform="translate(-1.604 24.054)" x1="61.34" y1="157.218" x2="154.614" y2="157.218"/><linearGradient xlink:href="#linearGradient5976" id="linearGradient60654" gradientUnits="userSpaceOnUse" gradientTransform="translate(-1.604 24.054)" x1="61.34" y1="157.218" x2="154.614" y2="157.218"/><linearGradient xlink:href="#linearGradient6042" id="linearGradient62474" gradientUnits="userSpaceOnUse" gradientTransform="matrix(.01153 -.32548 1.63363 .05789 161.46 22.01)" x1="106.375" y1="52.785" x2="106.695" y2="52.785"/><linearGradient xlink:href="#linearGradient6042" id="linearGradient63656" gradientUnits="userSpaceOnUse" gradientTransform="matrix(.00194 -.32568 1.63463 .00972 163.27 101.478)" x1="106.375" y1="52.785" x2="106.695" y2="52.785"/><linearGradient xlink:href="#linearGradient6042" id="linearGradient64898" gradientUnits="userSpaceOnUse" gradientTransform="matrix(.00194 -.32568 1.63463 .00972 162.891 180.097)" x1="106.375" y1="52.785" x2="106.695" y2="52.785"/></defs><g id="layer1" transform="translate(0 163)"><g id="g13500" transform="translate(-46.726 -176)"><g id="g13462"><rect id="rect3680" width="77.508" height="27.796" x="65.214" y="19.04" ry="13.363" fill="#e74200" stroke="#b6006e" stroke-width=".265"/></g><text id="text6001" y="36.679" x="78.577" style="line-height:1.25" font-weight="400" font-size="10.583" font-family="sans-serif" letter-spacing="0" word-spacing="0" stroke-width=".265"><tspan y="36.679" x="78.577" id="tspan5999" fill="#fff">start</tspan></text></g><path d="M59.244-102.698l.249-26.86" id="path6038" fill="url(#linearGradient6044)" stroke="#277553" stroke-width="2" stroke-miterlimit="1.3" marker-start="url(#marker9294)" marker-end="url(#Arrow1Sstart)"/><text style="line-height:1.25" x="149.3" y="-140.07" id="text33651" font-weight="400" font-size="10.583" font-family="sans-serif" letter-spacing="0" word-spacing="0" fill="#564d53" fill-opacity=".941" stroke-width=".265"><tspan x="149.3" y="-140.07" id="tspan72250">let day = 1;</tspan><tspan x="149.3" y="-126.84" id="tspan72256">let item;</tspan><tspan x="149.3" y="-113.611" id="tspan72254">swith (day) {</tspan><tspan x="149.3" y="-100.382" id="tspan38605"> case 1 : item = &quot;even&quot;; break;</tspan><tspan x="149.3" y="-87.153" id="tspan72258"> case 2 : item = &quot;odd&quot;; break;</tspan><tspan x="149.3" y="-73.924" id="tspan72274"> default: &quot;set number&quot;;</tspan><tspan x="149.3" y="-60.695" id="tspan40683">}</tspan></text><g id="g13465" transform="translate(-46.998 -118.015)"><path transform="matrix(.85742 -.51461 .85742 .51461 0 0)" id="rect5970" fill="#b6006e" stroke="#b6006e" stroke-width=".218" d="M-65.514 136.117h52.899v52.459h-52.899z"/></g><text style="line-height:1.25" x="19.674" y="-11.265" id="text6009" font-weight="400" font-size="10.583" font-family="sans-serif" letter-spacing="0" word-spacing="0" stroke-width=".265"><tspan id="tspan6007" x="19.674" y="-11.265" fill="#fff">case value 1</tspan></text><g id="g13459" transform="matrix(1.0003 0 0 .5915 73.152 -120.062)"><g id="g13481"><path id="rect5972" fill="url(#linearGradient39504)" stroke-width=".265" d="M59.868 162.831h93.01v36.883h-93.01z"/></g></g><path id="path10260" d="M58.896-41.476l-.219-26.46" fill="url(#linearGradient39506)" stroke="#277553" stroke-width="2" stroke-miterlimit="1.3" marker-start="url(#marker52996)" marker-end="url(#marker53270)"/><path d="M271.99 277.28l.565-271.125-.15-21.516" id="path13534" fill="url(#linearGradient39508)" stroke="#277553" stroke-width="2" stroke-miterlimit="1.3"/><path d="M58.417 200.562l-.218-26.46" id="path38885" fill="url(#linearGradient11008)" stroke="#277553" stroke-width="2" stroke-miterlimit="1.3" marker-start="url(#marker51806)" marker-end="url(#marker52068)"/><text id="text38889" y="-23.368" x="229.929" style="line-height:1.25" font-weight="400" font-size="10.583" font-family="sans-serif" letter-spacing="0" word-spacing="0" stroke-width=".265"><tspan y="-23.368" x="229.929" id="tspan38887">break;</tspan></text><text id="text38895" y="-8.651" x="141.502" style="line-height:1.25" font-weight="400" font-size="10.583" font-family="sans-serif" letter-spacing="0" word-spacing="0" stroke-width=".265"><tspan y="-8.651" x="141.502" id="tspan38893" fill="#fff">statement 1</tspan></text><g id="g39310" transform="translate(-47.158 -37.336)"><path id="rect39308" transform="matrix(.85742 -.51461 .85742 .51461 0 0)" fill="#b6006e" stroke="#b6006e" stroke-width=".218" d="M-65.514 136.117h52.899v52.459h-52.899z"/></g><path d="M130.336-14.54l-26.461.06" id="path39332" fill="url(#linearGradient39390)" stroke="#277553" stroke-width="2" stroke-miterlimit="1.3" marker-start="url(#marker60670)" marker-end="url(#marker61004)"/><text id="text39336" y="26.939" x="19.879" style="line-height:1.25" font-weight="400" font-size="10.583" font-family="sans-serif" letter-spacing="0" word-spacing="0" stroke-width=".265"><tspan y="26.939" x="19.879" id="tspan39334">false</tspan></text><path id="path39338" d="M100.002 276.579l87.882-.191 85.165.363" fill="url(#linearGradient39392)" stroke="#277553" stroke-width="2" stroke-miterlimit="1.3" marker-start="url(#marker43103)"/><path id="path39372" d="M57.534 260.984l-.219-26.46" fill="url(#linearGradient39396)" stroke="#277553" stroke-width="2" stroke-miterlimit="1.3" marker-start="url(#marker57098)" marker-end="url(#marker57408)"/><text style="line-height:1.25" x="104.545" y="-23.71" id="text39376" font-weight="400" font-size="10.583" font-family="sans-serif" letter-spacing="0" word-spacing="0" stroke-width=".265"><tspan id="tspan39374" x="104.545" y="-23.71">true</tspan></text><text style="line-height:1.25" x="23.56" y="69.236" id="text6009-9" font-weight="400" font-size="10.583" font-family="sans-serif" letter-spacing="0" word-spacing="0" stroke-width=".265"><tspan id="tspan6007-3" x="23.56" y="69.236" fill="#fff">case value 2</tspan></text><g id="g50358" transform="translate(-8.315 -8.693)"><g transform="translate(-36.521 253.003)" id="g50326"><rect ry="13.363" y="19.04" x="65.214" height="27.796" width="77.508" id="rect50324" fill="#e74200" stroke-width=".265"/></g><text id="text50352" y="290.574" x="55.94" style="line-height:1.25" font-weight="400" font-size="10.583" font-family="sans-serif" letter-spacing="0" word-spacing="0" stroke-width=".265"><tspan y="290.574" x="55.94" id="tspan50350" fill="#fff">end</tspan></text></g><g id="g51788" transform="matrix(1 0 0 .71408 -45.123 -216.37)" fill="url(#linearGradient51802)"><g id="g51786" fill="url(#linearGradient56418)"><path id="rect51784" fill="url(#linearGradient56416)" stroke-width=".265" d="M59.868 162.831h93.01v36.883h-93.01z"/></g></g><path id="path54016" d="M58.736 39.203l-.218-26.46" fill="url(#linearGradient55292)" stroke="#277553" stroke-width="2" stroke-miterlimit="1.3" marker-start="url(#marker54020)" marker-end="url(#marker54306)"/><g transform="translate(-47.317 43.343)" id="g55500"><path transform="matrix(.85742 -.51461 .85742 .51461 0 0)" id="rect55498" fill="#b6006e" stroke="#b6006e" stroke-width=".218" d="M-65.514 136.117h52.899v52.459h-52.899z"/></g><text id="text55504" y="150.671" x="24.156" style="line-height:1.25" font-weight="400" font-size="10.583" font-family="sans-serif" letter-spacing="0" word-spacing="0" stroke-width=".265"><tspan y="150.671" x="24.156" id="tspan55502" fill="#fff">case value 3</tspan></text><path d="M58.577 119.883l-.219-26.46" id="path55506" fill="url(#linearGradient55508)" stroke="#277553" stroke-width="2" stroke-miterlimit="1.3" marker-start="url(#marker55528)" marker-end="url(#marker55826)"/><g transform="matrix(1 0 0 .71408 -46.635 86.768)" id="g56436" fill="url(#linearGradient56688)"><g id="g56434" fill="url(#linearGradient56708)"><path id="rect56432" fill="url(#linearGradient56704)" stroke-width=".265" d="M59.868 162.831h93.01v36.883h-93.01z"/></g></g><text style="line-height:1.25" x="19.879" y="107.07" id="text56698" font-weight="400" font-size="10.583" font-family="sans-serif" letter-spacing="0" word-spacing="0" stroke-width=".265"><tspan id="tspan56696" x="19.879" y="107.07">false</tspan></text><text id="text56702" y="184.177" x="14.587" style="line-height:1.25" font-weight="400" font-size="10.583" font-family="sans-serif" letter-spacing="0" word-spacing="0" stroke-width=".265"><tspan y="184.177" x="14.587" id="tspan56700">false</tspan></text><text style="line-height:1.25" x="21.888" y="220.597" id="text58936" font-weight="400" font-size="10.583" font-family="sans-serif" letter-spacing="0" word-spacing="0" stroke-width=".265"><tspan id="tspan58934" x="21.888" y="220.597" fill="#fff">default block</tspan></text><path id="path60400" d="M130.176 66.138l-26.46.061" fill="url(#linearGradient60410)" stroke="#277553" stroke-width="2" stroke-miterlimit="1.3" marker-start="url(#marker58944)" marker-end="url(#marker59266)"/><text id="text60404" y="58.481" x="105.898" style="line-height:1.25" font-weight="400" font-size="10.583" font-family="sans-serif" letter-spacing="0" word-spacing="0" stroke-width=".265"><tspan y="58.481" x="105.898" id="tspan60402">true</tspan></text><path d="M130.017 146.817l-26.461.061" id="path60620" fill="url(#linearGradient60630)" stroke="#277553" stroke-width="2" stroke-miterlimit="1.3" marker-start="url(#marker58944)" marker-end="url(#marker59266)"/><text style="line-height:1.25" x="104.604" y="137.648" id="text60624" font-weight="400" font-size="10.583" font-family="sans-serif" letter-spacing="0" word-spacing="0" stroke-width=".265"><tspan id="tspan60622" x="104.604" y="137.648">true</tspan></text><g transform="matrix(1.0003 0 0 .5915 74.664 -39.932)" id="g60636"><g id="g60634"><path id="rect60632" fill="url(#linearGradient60642)" stroke-width=".265" d="M59.868 162.831h93.01v36.883h-93.01z"/></g></g><text style="line-height:1.25" x="143.014" y="71.48" id="text60640" font-weight="400" font-size="10.583" font-family="sans-serif" letter-spacing="0" word-spacing="0" stroke-width=".265"><tspan id="tspan60638" x="143.014" y="71.48" fill="#fff">statement 2</tspan></text><g id="g60648" transform="matrix(1.0003 0 0 .5915 74.286 39.443)"><g id="g60646"><path id="rect60644" fill="url(#linearGradient60654)" stroke-width=".265" d="M59.868 162.831h93.01v36.883h-93.01z"/></g></g><text id="text60652" y="150.855" x="142.636" style="line-height:1.25" font-weight="400" font-size="10.583" font-family="sans-serif" letter-spacing="0" word-spacing="0" stroke-width=".265"><tspan y="150.855" x="142.636" id="tspan60650" fill="#fff">statement 3</tspan></text><text style="line-height:1.25" x="36.664" y="-84.378" id="text60658" font-weight="400" font-size="10.583" font-family="sans-serif" letter-spacing="0" word-spacing="0" stroke-width=".265"><tspan id="tspan60656" x="36.664" y="-84.378" fill="#fff">switch</tspan></text><text style="line-height:1.25" x="232.575" y="56.763" id="text60662" font-weight="400" font-size="10.583" font-family="sans-serif" letter-spacing="0" word-spacing="0" stroke-width=".265"><tspan id="tspan60660" x="232.575" y="56.763">break;</tspan></text><text id="text60666" y="135.382" x="232.197" style="line-height:1.25" font-weight="400" font-size="10.583" font-family="sans-serif" letter-spacing="0" word-spacing="0" stroke-width=".265"><tspan y="135.382" x="232.197" id="tspan60664">break;</tspan></text><path id="path61354" d="M272.572-14.426c-10.886.14-27.303-.084-40.955-.127" fill="url(#linearGradient62474)" stroke="#277553" stroke-width="2" stroke-miterlimit="1.3" marker-end="url(#marker61704)"/><path d="M272.738 67.574l-39.217-.033" id="path62488" fill="url(#linearGradient63656)" stroke="#277553" stroke-width="2" stroke-miterlimit="1.3" marker-end="url(#marker62850)"/><path id="path63682" d="M272.833 146.288l-39.69-.128" fill="url(#linearGradient64898)" stroke="#277553" stroke-width="2" stroke-miterlimit="1.3" marker-end="url(#marker64056)"/></g></svg>