<svg xmlns:osb="http://www.openswatchbook.org/uri/2009/osb" xmlns="http://www.w3.org/2000/svg" xmlns:xlink="http://www.w3.org/1999/xlink" width="360mm" height="460mm" viewBox="0 0 360 460" id="svg8"><defs id="defs2"><marker id="marker47199" orient="auto" overflow="visible"><path d="M1.2 0l1-1-3.5 1 3.5 1z" id="path47197" fill="#434b48" fill-rule="evenodd" stroke="#277553" stroke-width=".267"/></marker><marker id="marker46937" orient="auto" overflow="visible"><path d="M1.2 0l1-1-3.5 1 3.5 1z" id="path46935" fill="#434b48" fill-rule="evenodd" stroke="#277553" stroke-width=".267"/></marker><marker id="marker45685" orient="auto" overflow="visible"><path d="M1.2 0l1-1-3.5 1 3.5 1z" id="path45683" fill="#434b48" fill-rule="evenodd" stroke="#277553" stroke-width=".267"/></marker><marker id="marker45435" orient="auto" overflow="visible"><path d="M1.2 0l1-1-3.5 1 3.5 1z" id="path45433" fill="#434b48" fill-rule="evenodd" stroke="#277553" stroke-width=".267"/></marker><marker id="marker44687" orient="auto" overflow="visible"><path d="M1.2 0l1-1-3.5 1 3.5 1z" id="path44685" fill="#434b48" fill-rule="evenodd" stroke="#277553" stroke-width=".267"/></marker><marker id="marker44449" orient="auto" overflow="visible"><path d="M1.2 0l1-1-3.5 1 3.5 1z" id="path44447" fill="#434b48" fill-rule="evenodd" stroke="#277553" stroke-width=".267"/></marker><marker id="marker43329" orient="auto" overflow="visible"><path d="M1.2 0l1-1-3.5 1 3.5 1z" id="path43327" fill="#434b48" fill-rule="evenodd" stroke="#277553" stroke-width=".267"/></marker><marker id="marker43103" orient="auto" overflow="visible"><path d="M1.2 0l1-1-3.5 1 3.5 1z" id="path43101" fill="#434b48" fill-rule="evenodd" stroke="#277553" stroke-width=".267"/></marker><marker id="marker41527" orient="auto" overflow="visible"><path d="M1.2 0l1-1-3.5 1 3.5 1z" id="path41525" fill="#434b48" fill-rule="evenodd" stroke="#277553" stroke-width=".267"/></marker><marker id="marker41313" orient="auto" overflow="visible"><path d="M1.2 0l1-1-3.5 1 3.5 1z" id="path41311" fill="#434b48" fill-rule="evenodd" stroke="#277553" stroke-width=".267"/></marker><marker orient="auto" id="marker40963" overflow="visible"><path id="path40961" d="M-1.2 0l-1 1 3.5-1-3.5-1z" fill="#277553" fill-rule="evenodd" stroke="#277553" stroke-width=".267"/></marker><marker orient="auto" id="marker40761" overflow="visible"><path id="path40759" d="M-1.2 0l-1 1 3.5-1-3.5-1z" fill="#277553" fill-rule="evenodd" stroke="#277553" stroke-width=".267"/></marker><marker orient="auto" id="marker40212" overflow="visible"><path id="path40210" d="M-1.2 0l-1 1 3.5-1-3.5-1z" fill="#277553" fill-rule="evenodd" stroke="#277553" stroke-width=".267"/></marker><marker orient="auto" id="marker40022" overflow="visible"><path id="path40020" d="M-1.2 0l-1 1 3.5-1-3.5-1z" fill="#277553" fill-rule="evenodd" stroke="#277553" stroke-width=".267"/></marker><marker id="marker39067" orient="auto" overflow="visible"><path d="M-1.2 0l-1 1 3.5-1-3.5-1z" id="path39065" fill="#277553" fill-rule="evenodd" stroke="#277553" stroke-width=".267"/></marker><marker id="marker38901" orient="auto" overflow="visible"><path d="M-1.2 0l-1 1 3.5-1-3.5-1z" id="path38899" fill="#277553" fill-rule="evenodd" stroke="#277553" stroke-width=".267"/></marker><marker orient="auto" id="marker37143" overflow="visible"><path id="path37141" d="M-1.2 0l-1 1 3.5-1-3.5-1z" fill="#277553" fill-rule="evenodd" stroke="#277553" stroke-width=".267"/></marker><marker orient="auto" id="marker36983" overflow="visible"><path id="path36981" d="M-1.2 0l-1 1 3.5-1-3.5-1z" fill="#277553" fill-rule="evenodd" stroke="#277553" stroke-width=".267"/></marker><linearGradient id="linearGradient36977" osb:paint="solid"><stop offset="0" id="stop36975" stop-color="#277553"/></linearGradient><marker orient="auto" id="marker35399" overflow="visible"><path id="path35397" d="M-1.2 0l-1 1 3.5-1-3.5-1z" fill="#277553" fill-rule="evenodd" stroke="#277553" stroke-width=".267"/></marker><marker orient="auto" id="marker35251" overflow="visible"><path id="path35249" d="M-1.2 0l-1 1 3.5-1-3.5-1z" fill="#277553" fill-rule="evenodd" stroke="#277553" stroke-width=".267"/></marker><linearGradient id="linearGradient35245" osb:paint="solid"><stop offset="0" id="stop35243" stop-color="#277553"/></linearGradient><marker orient="auto" id="marker24232" overflow="visible"><path id="path24230" d="M-1.2 0l-1 1 3.5-1-3.5-1z" fill="#277553" fill-rule="evenodd" stroke="#277553" stroke-width=".267"/></marker><marker orient="auto" id="marker24096" overflow="visible"><path id="path24094" d="M-1.2 0l-1 1 3.5-1-3.5-1z" fill="#277553" fill-rule="evenodd" stroke="#277553" stroke-width=".267"/></marker><marker orient="auto" id="Arrow1Mend" overflow="visible"><path id="path6055" d="M-4 0l-2 2 7-2-7-2z" fill="#277553" fill-rule="evenodd" stroke="#277553" stroke-width=".533"/></marker><marker orient="auto" id="Arrow1Mstart" overflow="visible"><path id="path6052" d="M4 0l2-2-7 2 7 2z" fill-rule="evenodd" stroke="#000" stroke-width=".533"/></marker><marker orient="auto" id="marker13644" overflow="visible"><path id="path13642" d="M1.2 0l1-1-3.5 1 3.5 1z" fill="#434b48" fill-rule="evenodd" stroke="#277553" stroke-width=".267"/></marker><marker orient="auto" id="marker13538" overflow="visible"><path id="path13536" d="M1.2 0l1-1-3.5 1 3.5 1z" fill="#434b48" fill-rule="evenodd" stroke="#277553" stroke-width=".267"/></marker><marker id="marker10358" orient="auto" overflow="visible"><path d="M1.2 0l1-1-3.5 1 3.5 1z" id="path10356" fill="#434b48" fill-rule="evenodd" stroke="#277553" stroke-width=".267"/></marker><marker id="marker10264" orient="auto" overflow="visible"><path d="M1.2 0l1-1-3.5 1 3.5 1z" id="path10262" fill="#434b48" fill-rule="evenodd" stroke="#277553" stroke-width=".267"/></marker><marker orient="auto" id="marker9294" overflow="visible"><path id="path9292" d="M1.2 0l1-1-3.5 1 3.5 1z" fill="#434b48" fill-rule="evenodd" stroke="#277553" stroke-width=".267"/></marker><marker orient="auto" id="Arrow1Sstart" overflow="visible"><path id="path6058" d="M1.2 0l1-1-3.5 1 3.5 1z" fill="#434b48" fill-rule="evenodd" stroke="#277553" stroke-width=".267"/></marker><marker orient="auto" id="marker8976" overflow="visible"><path id="path8974" d="M-1.2 0l-1 1 3.5-1-3.5-1z" fill="#434b48" fill-rule="evenodd" stroke="#277553" stroke-width=".267"/></marker><marker orient="auto" id="Arrow1Send" overflow="visible"><path id="path6061" d="M-1.2 0l-1 1 3.5-1-3.5-1z" fill="#434b48" fill-rule="evenodd" stroke="#277553" stroke-width=".267"/></marker><marker orient="auto" id="Tail" overflow="visible"><g id="g6094" transform="scale(-1.2)" fill="#434b48" stroke="#277553" fill-rule="evenodd" stroke-width=".8" stroke-linecap="round"><path id="path6082" d="M-3.805-3.959L.544 0"/><path id="path6084" d="M-1.287-3.959L3.062 0"/><path id="path6086" d="M1.305-3.959L5.654 0"/><path id="path6088" d="M-3.805 4.178L.544.22"/><path id="path6090" d="M-1.287 4.178L3.062.22"/><path id="path6092" d="M1.305 4.178L5.654.22"/></g></marker><marker orient="auto" id="marker6466" overflow="visible"><path id="path6464" d="M10.69 4.437L-1.328.017 10.69-4.401c-1.92 2.61-1.909 6.18 0 8.84z" fill="#434b48" fill-rule="evenodd" stroke="#277553" stroke-width=".688" stroke-linejoin="round"/></marker><marker orient="auto" id="marker6414" overflow="visible"><path id="path6412" d="M-10.69-4.437L1.328-.017-10.69 4.401c1.92-2.61 1.909-6.18 0-8.84z" fill="#434b48" fill-rule="evenodd" stroke="#277553" stroke-width=".688" stroke-linejoin="round"/></marker><marker orient="auto" id="Arrow2Lstart" overflow="visible"><path id="path6064" d="M10.69 4.437L-1.328.017 10.69-4.401c-1.92 2.61-1.909 6.18 0 8.84z" fill="#434b48" fill-rule="evenodd" stroke="#277553" stroke-width=".688" stroke-linejoin="round"/></marker><marker orient="auto" id="marker6330" overflow="visible"><path id="path6328" d="M-10.69-4.437L1.328-.017-10.69 4.401c1.92-2.61 1.909-6.18 0-8.84z" fill="#434b48" fill-rule="evenodd" stroke="#277553" stroke-width=".688" stroke-linejoin="round"/></marker><marker orient="auto" id="Arrow2Lend" overflow="visible"><path id="path6067" d="M-10.69-4.437L1.328-.017-10.69 4.401c1.92-2.61 1.909-6.18 0-8.84z" fill="#434b48" fill-rule="evenodd" stroke="#277553" stroke-width=".688" stroke-linejoin="round"/></marker><linearGradient id="linearGradient6042" osb:paint="solid"><stop offset="0" id="stop6040" stop-color="#434b48"/></linearGradient><linearGradient id="linearGradient5976" osb:paint="solid"><stop offset="0" id="stop5974" stop-color="#009e5a"/></linearGradient><linearGradient id="linearGradient5955" osb:paint="solid"><stop offset="0" id="stop5953" stop-color="#b6006e"/></linearGradient><linearGradient xlink:href="#linearGradient5976" id="linearGradient5978" x1="61.34" y1="157.218" x2="154.614" y2="157.218" gradientUnits="userSpaceOnUse" gradientTransform="translate(-1.604 24.054)"/><linearGradient xlink:href="#linearGradient6042" id="linearGradient6044" x1="106.375" y1="52.785" x2="106.695" y2="52.785" gradientUnits="userSpaceOnUse" gradientTransform="matrix(.32568 0 0 1.63466 25.428 -177.02)"/><linearGradient xlink:href="#linearGradient6042" id="linearGradient11008" gradientUnits="userSpaceOnUse" gradientTransform="matrix(.32568 0 0 1.63466 25.125 -88.427)" x1="106.375" y1="52.785" x2="106.695" y2="52.785"/><linearGradient xlink:href="#linearGradient6042" id="linearGradient14270" gradientUnits="userSpaceOnUse" gradientTransform="matrix(.32568 0 0 1.63466 21.25 128.463)" x1="106.375" y1="52.785" x2="106.695" y2="52.785"/><linearGradient xlink:href="#linearGradient5976" id="linearGradient39388" gradientUnits="userSpaceOnUse" gradientTransform="translate(-1.604 24.054)" x1="61.34" y1="157.218" x2="154.614" y2="157.218"/><linearGradient xlink:href="#linearGradient6042" id="linearGradient39390" gradientUnits="userSpaceOnUse" gradientTransform="matrix(.32568 0 0 1.63466 133.709 -5.236)" x1="106.375" y1="52.785" x2="106.695" y2="52.785"/><linearGradient xlink:href="#linearGradient6042" id="linearGradient39392" gradientUnits="userSpaceOnUse" gradientTransform="matrix(.32568 0 0 1.63466 134.11 60.913)" x1="106.375" y1="52.785" x2="106.695" y2="52.785"/><linearGradient xlink:href="#linearGradient5976" id="linearGradient39394" gradientUnits="userSpaceOnUse" gradientTransform="translate(-1.604 24.054)" x1="61.34" y1="157.218" x2="154.614" y2="157.218"/><linearGradient xlink:href="#linearGradient6042" id="linearGradient39396" gradientUnits="userSpaceOnUse" gradientTransform="matrix(.32568 0 0 1.63466 133.709 -5.236)" x1="106.375" y1="52.785" x2="106.695" y2="52.785"/><linearGradient xlink:href="#linearGradient6042" id="linearGradient39398" gradientUnits="userSpaceOnUse" gradientTransform="matrix(.32568 0 0 1.63466 134.11 60.913)" x1="106.375" y1="52.785" x2="106.695" y2="52.785"/><linearGradient xlink:href="#linearGradient5976" id="linearGradient39492" gradientUnits="userSpaceOnUse" gradientTransform="translate(-1.604 24.054)" x1="61.34" y1="157.218" x2="154.614" y2="157.218"/><linearGradient xlink:href="#linearGradient6042" id="linearGradient39494" gradientUnits="userSpaceOnUse" gradientTransform="matrix(.32568 0 0 1.63466 242.292 77.954)" x1="106.375" y1="52.785" x2="106.695" y2="52.785"/><linearGradient xlink:href="#linearGradient6042" id="linearGradient39496" gradientUnits="userSpaceOnUse" gradientTransform="matrix(.32568 0 0 1.63466 242.693 144.104)" x1="106.375" y1="52.785" x2="106.695" y2="52.785"/><linearGradient xlink:href="#linearGradient5976" id="linearGradient39498" gradientUnits="userSpaceOnUse" gradientTransform="translate(-1.604 24.054)" x1="61.34" y1="157.218" x2="154.614" y2="157.218"/><linearGradient xlink:href="#linearGradient6042" id="linearGradient39500" gradientUnits="userSpaceOnUse" gradientTransform="matrix(.32568 0 0 1.63466 242.292 77.954)" x1="106.375" y1="52.785" x2="106.695" y2="52.785"/><linearGradient xlink:href="#linearGradient5976" id="linearGradient39504" gradientUnits="userSpaceOnUse" gradientTransform="translate(-1.604 24.054)" x1="61.34" y1="157.218" x2="154.614" y2="157.218"/><linearGradient xlink:href="#linearGradient6042" id="linearGradient39506" gradientUnits="userSpaceOnUse" gradientTransform="matrix(.32568 0 0 1.63466 25.125 -88.427)" x1="106.375" y1="52.785" x2="106.695" y2="52.785"/><linearGradient xlink:href="#linearGradient6042" id="linearGradient39508" gradientUnits="userSpaceOnUse" gradientTransform="matrix(.32568 0 0 1.63466 25.526 -22.277)" x1="106.375" y1="52.785" x2="106.695" y2="52.785"/><marker orient="auto" id="marker24096-2" overflow="visible"><path id="path24094-9" d="M-1.2 0l-1 1 3.5-1-3.5-1z" fill="#277553" fill-rule="evenodd" stroke="#277553" stroke-width=".267"/></marker><marker orient="auto" id="marker24232-1" overflow="visible"><path id="path24230-2" d="M-1.2 0l-1 1 3.5-1-3.5-1z" fill="#277553" fill-rule="evenodd" stroke="#277553" stroke-width=".267"/></marker></defs><g id="layer1" transform="translate(0 163)"><g id="g13500" transform="translate(-45.97 -151.81)"><g id="g13462"><rect id="rect3680" width="77.508" height="27.796" x="65.214" y="19.04" ry="13.363" fill="#e74200" stroke="#b6006e" stroke-width=".265"/></g><text id="text6001" y="36.679" x="78.577" style="line-height:1.25" font-weight="400" font-size="10.583" font-family="sans-serif" letter-spacing="0" word-spacing="0" stroke-width=".265"><tspan y="36.679" x="78.577" id="tspan5999" fill="#fff">start</tspan></text></g><path d="M60-78.507l.249-26.861" id="path6038" fill="url(#linearGradient6044)" stroke="#277553" stroke-width="2" stroke-miterlimit="1.3" marker-start="url(#marker9294)" marker-end="url(#Arrow1Sstart)"/><text style="line-height:1.25" x="218.092" y="-137.046" id="text33651" font-weight="400" font-size="10.583" font-family="sans-serif" letter-spacing="0" word-spacing="0" fill="#564d53" fill-opacity=".941" stroke-width=".265"><tspan x="218.092" y="-137.046" id="tspan38603">if (condition_1) {</tspan><tspan x="218.092" y="-123.817" id="tspan38605"> // statement </tspan><tspan x="218.092" y="-110.587" id="tspan38609">} else if (condition_2) {</tspan><tspan x="218.092" y="-97.358" id="tspan40660"> // statments</tspan><tspan x="218.092" y="-84.129" id="tspan38611">} else if (condition_3) {</tspan><tspan x="218.092" y="-70.9" id="tspan40677"> // statments</tspan><tspan x="218.092" y="-57.671" id="tspan40683">}</tspan></text><g id="g13494" transform="translate(-45.97 -151.81)"><g id="g13465"><path id="rect5970" transform="matrix(.85742 -.51461 .85742 .51461 0 0)" fill="#b6006e" stroke="#b6006e" stroke-width=".218" d="M-65.514 136.117h52.899v52.459h-52.899z"/></g><text id="text6009" y="107.506" x="73.098" style="line-height:1.25" font-weight="400" font-size="10.583" font-family="sans-serif" letter-spacing="0" word-spacing="0" stroke-width=".265"><tspan y="107.506" x="73.098" id="tspan6007" fill="#fff">condition 1</tspan></text></g><g id="g13459" transform="translate(-44.367 -151.007)"><g id="g13481"><path id="rect5972" fill="url(#linearGradient39504)" stroke="#b6006e" stroke-width=".265" d="M59.868 162.831h93.01v36.883h-93.01z"/></g></g><text style="line-height:1.25" x="36.616" y="25.187" id="text6013" font-weight="400" font-size="10.583" font-family="sans-serif" letter-spacing="0" word-spacing="0" stroke-width=".265"><tspan id="tspan6011" x="36.616" y="25.187" fill="#fff">if block</tspan></text><text style="line-height:1.25" x="157.154" y="-55.261" id="text6017" font-weight="400" font-size="10.583" font-family="sans-serif" letter-spacing="0" word-spacing="0" stroke-width=".265"><tspan id="tspan6015" x="157.154" y="-55.261">false</tspan></text><path id="path10260" d="M59.697 8.082l-.218-26.46" fill="url(#linearGradient39506)" stroke="#277553" stroke-width="2" stroke-miterlimit="1.3" marker-start="url(#marker10264)" marker-end="url(#marker10358)"/><text style="line-height:1.25" x="30.736" y="-10.894" id="text13504" font-weight="400" font-size="10.583" font-family="sans-serif" letter-spacing="0" word-spacing="0" stroke-width=".265"><tspan id="tspan13502" x="30.736" y="-10.894">true</tspan></text><path d="M59.766 243.26l.33-170.098.118-18.977" id="path13534" fill="url(#linearGradient39508)" stroke="#277553" stroke-width="2" stroke-miterlimit="1.3" marker-start="url(#marker45435)" marker-end="url(#marker45685)"/><text style="line-height:1.25" x="28.865" y="39.352" id="text6013-5" font-weight="400" font-size="10.583" font-family="sans-serif" letter-spacing="0" word-spacing="0" stroke-width=".265"><tspan id="tspan6011-6" x="28.865" y="39.352" fill="#fff">statements</tspan></text><path d="M104.903-48.274l63.21-.305.361 54.498c.241-2.818.022-2.81.033 2.002" id="path35241" fill="none" stroke="#277553" stroke-width="2" marker-start="url(#marker35251)" marker-end="url(#marker35399)"/><g transform="translate(-44.367 -151.007)" id="g38875"><g id="g38873"><path id="rect38871" fill="url(#linearGradient5978)" stroke="#b6006e" stroke-width=".265" d="M59.868 162.831h93.01v36.883h-93.01z"/></g></g><text id="text38879" y="25.187" x="36.616" style="line-height:1.25" font-weight="400" font-size="10.583" font-family="sans-serif" letter-spacing="0" word-spacing="0" stroke-width=".265"><tspan y="25.187" x="36.616" id="tspan38877" fill="#fff">if block</tspan></text><text id="text38883" y="-55.261" x="157.154" style="line-height:1.25" font-weight="400" font-size="10.583" font-family="sans-serif" letter-spacing="0" word-spacing="0" stroke-width=".265"><tspan y="-55.261" x="157.154" id="tspan38881">false</tspan></text><path d="M59.697 8.082l-.218-26.46" id="path38885" fill="url(#linearGradient11008)" stroke="#277553" stroke-width="2" stroke-miterlimit="1.3" marker-start="url(#marker10264)" marker-end="url(#marker10358)"/><text id="text38889" y="-10.894" x="30.736" style="line-height:1.25" font-weight="400" font-size="10.583" font-family="sans-serif" letter-spacing="0" word-spacing="0" stroke-width=".265"><tspan y="-10.894" x="30.736" id="tspan38887">true</tspan></text><text id="text38895" y="39.352" x="28.865" style="line-height:1.25" font-weight="400" font-size="10.583" font-family="sans-serif" letter-spacing="0" word-spacing="0" stroke-width=".265"><tspan y="39.352" x="28.865" id="tspan38893" fill="#fff">statements</tspan></text><path id="path38897" d="M104.903-48.274l63.21-.305.361 54.498c.241-2.818.022-2.81.033 2.002" fill="none" stroke="#277553" stroke-width="2" marker-start="url(#marker38901)" marker-end="url(#marker39067)"/><g id="g39310" transform="translate(62.613 -68.619)"><path id="rect39308" transform="matrix(.85742 -.51461 .85742 .51461 0 0)" fill="#b6006e" stroke="#b6006e" stroke-width=".218" d="M-65.514 136.117h52.899v52.459h-52.899z"/></g><g transform="translate(64.217 -67.817)" id="g39322"><g id="g39320"><path id="rect39318" fill="url(#linearGradient39388)" stroke="#b6006e" stroke-width=".265" d="M59.868 162.831h93.01v36.883h-93.01z"/></g></g><text id="text39326" y="108.377" x="145.199" style="line-height:1.25" font-weight="400" font-size="10.583" font-family="sans-serif" letter-spacing="0" word-spacing="0" stroke-width=".265"><tspan y="108.377" x="145.199" id="tspan39324" fill="#fff">if block</tspan></text><text id="text39330" y="27.929" x="265.738" style="line-height:1.25" font-weight="400" font-size="10.583" font-family="sans-serif" letter-spacing="0" word-spacing="0" stroke-width=".265"><tspan y="27.929" x="265.738" id="tspan39328">false</tspan></text><path d="M168.28 91.272l-.218-26.46" id="path39332" fill="url(#linearGradient39390)" stroke="#277553" stroke-width="2" stroke-miterlimit="1.3" marker-start="url(#marker10264)" marker-end="url(#marker10358)"/><text id="text39336" y="72.296" x="139.319" style="line-height:1.25" font-weight="400" font-size="10.583" font-family="sans-serif" letter-spacing="0" word-spacing="0" stroke-width=".265"><tspan y="72.296" x="139.319" id="tspan39334">true</tspan></text><path id="path39338" d="M168.87 244.234l-.19-87.882.117-18.976" fill="url(#linearGradient39392)" stroke="#277553" stroke-width="2" stroke-miterlimit="1.3" marker-start="url(#marker43103)" marker-end="url(#marker43329)"/><text id="text39342" y="122.543" x="137.448" style="line-height:1.25" font-weight="400" font-size="10.583" font-family="sans-serif" letter-spacing="0" word-spacing="0" stroke-width=".265"><tspan y="122.543" x="137.448" id="tspan39340" fill="#fff">statements</tspan></text><path id="path39344" d="M213.486 34.917l63.21-.306.362 54.498c.24-2.817.022-2.81.032 2.002" fill="none" stroke="#277553" stroke-width="2" marker-start="url(#marker35251)" marker-end="url(#marker35399)"/><g id="g39362" transform="translate(64.217 -67.817)"><g id="g39360"><path id="rect39358" fill="url(#linearGradient39394)" stroke="#b6006e" stroke-width=".265" d="M59.868 162.831h93.01v36.883h-93.01z"/></g></g><text style="line-height:1.25" x="145.199" y="108.377" id="text39366" font-weight="400" font-size="10.583" font-family="sans-serif" letter-spacing="0" word-spacing="0" stroke-width=".265"><tspan id="tspan39364" x="145.199" y="108.377" fill="#fff">if block</tspan></text><text style="line-height:1.25" x="265.738" y="27.929" id="text39370" font-weight="400" font-size="10.583" font-family="sans-serif" letter-spacing="0" word-spacing="0" stroke-width=".265"><tspan id="tspan39368" x="265.738" y="27.929">false</tspan></text><path id="path39372" d="M168.28 91.272l-.218-26.46" fill="url(#linearGradient39396)" stroke="#277553" stroke-width="2" stroke-miterlimit="1.3" marker-start="url(#marker10264)" marker-end="url(#marker10358)"/><text style="line-height:1.25" x="139.319" y="72.296" id="text39376" font-weight="400" font-size="10.583" font-family="sans-serif" letter-spacing="0" word-spacing="0" stroke-width=".265"><tspan id="tspan39374" x="139.319" y="72.296">true</tspan></text><text style="line-height:1.25" x="137.448" y="122.543" id="text39382" font-weight="400" font-size="10.583" font-family="sans-serif" letter-spacing="0" word-spacing="0" stroke-width=".265"><tspan id="tspan39380" x="137.448" y="122.543" fill="#fff">statements</tspan></text><path d="M213.486 34.917l63.21-.306.362 54.498c.24-2.817.022-2.81.032 2.002" id="path39384" fill="none" stroke="#277553" stroke-width="2" marker-start="url(#marker40761)" marker-end="url(#marker40963)"/><g id="g39420" transform="translate(171.196 14.572)"><g id="g39414"><path id="rect39412" transform="matrix(.85742 -.51461 .85742 .51461 0 0)" fill="#b6006e" stroke="#b6006e" stroke-width=".218" d="M-65.514 136.117h52.899v52.459h-52.899z"/></g><text id="text39418" y="106.437" x="74.435" style="line-height:1.25" font-weight="400" font-size="10.583" font-family="sans-serif" letter-spacing="0" word-spacing="0" stroke-width=".265"><tspan y="106.437" x="74.435" id="tspan39416" fill="#fff">condition 3</tspan></text></g><g id="g39426" transform="translate(172.8 15.374)"><g id="g39424"><path id="rect39422" fill="url(#linearGradient39492)" stroke="#b6006e" stroke-width=".265" d="M59.868 162.831h93.01v36.883h-93.01z"/></g></g><text style="line-height:1.25" x="253.782" y="191.568" id="text39430" font-weight="400" font-size="10.583" font-family="sans-serif" letter-spacing="0" word-spacing="0" stroke-width=".265"><tspan id="tspan39428" x="253.782" y="191.568" fill="#fff">if block</tspan></text><path id="path39436" d="M276.864 174.463l-.219-26.46" fill="url(#linearGradient39494)" stroke="#277553" stroke-width="2" stroke-miterlimit="1.3" marker-start="url(#marker10264)" marker-end="url(#marker10358)"/><text style="line-height:1.25" x="247.903" y="155.487" id="text39440" font-weight="400" font-size="10.583" font-family="sans-serif" letter-spacing="0" word-spacing="0" stroke-width=".265"><tspan id="tspan39438" x="247.903" y="155.487">true</tspan></text><path d="M277.438 243.533l.014-17.508-.071-5.459" id="path39442" fill="url(#linearGradient39496)" stroke="#277553" stroke-width="2" stroke-miterlimit="1.3" marker-start="url(#marker13538)" marker-end="url(#marker13644)"/><text style="line-height:1.25" x="246.032" y="205.733" id="text39446" font-weight="400" font-size="10.583" font-family="sans-serif" letter-spacing="0" word-spacing="0" stroke-width=".265"><tspan id="tspan39444" x="246.032" y="205.733" fill="#fff">statements</tspan></text><g transform="matrix(8.49238 0 0 .99385 -605.33 24.487)" id="g39454"><g id="g39452" transform="matrix(1.00037 0 0 .86371 -.435 44.288)"><rect id="rect39450" width="34.305" height="28.849" x="74.776" y="207.646" ry="8.807" rx="1.201" fill="#e74200" stroke="#b6006e" stroke-width=".177"/></g></g><text id="text39458" y="261.325" x="141.81" style="line-height:1.25" font-weight="400" font-size="10.583" font-family="sans-serif" letter-spacing="0" word-spacing="0" stroke-width=".265"><tspan y="261.325" x="141.81" id="tspan39456" fill="#fff">end</tspan></text><g transform="translate(172.8 15.374)" id="g39466"><g id="g39464"><path id="rect39462" fill="url(#linearGradient39498)" stroke="#b6006e" stroke-width=".265" d="M59.868 162.831h93.01v36.883h-93.01z"/></g></g><text id="text39470" y="191.568" x="253.782" style="line-height:1.25" font-weight="400" font-size="10.583" font-family="sans-serif" letter-spacing="0" word-spacing="0" stroke-width=".265"><tspan y="191.568" x="253.782" id="tspan39468" fill="#fff">if block</tspan></text><path d="M276.864 174.463l-.219-26.46" id="path39476" fill="url(#linearGradient39500)" stroke="#277553" stroke-width="2" stroke-miterlimit="1.3" marker-start="url(#marker10264)" marker-end="url(#marker10358)"/><text id="text39480" y="155.487" x="247.903" style="line-height:1.25" font-weight="400" font-size="10.583" font-family="sans-serif" letter-spacing="0" word-spacing="0" stroke-width=".265"><tspan y="155.487" x="247.903" id="tspan39478">true</tspan></text><text id="text39486" y="205.733" x="246.032" style="line-height:1.25" font-weight="400" font-size="10.583" font-family="sans-serif" letter-spacing="0" word-spacing="0" stroke-width=".265"><tspan y="205.733" x="246.032" id="tspan39484" fill="#fff">statements</tspan></text><text style="line-height:1.25" x="324.074" y="110.051" id="text6017-7" font-weight="400" font-size="10.583" font-family="sans-serif" letter-spacing="0" word-spacing="0" stroke-width=".265"><tspan id="tspan6015-0" x="324.074" y="110.051">false</tspan></text><path d="M322.07 118.107l13.363.496.134 139.782-14.165.268" id="path23836" fill="none" stroke="#277553" stroke-width="2" marker-start="url(#marker24096-2)" marker-end="url(#marker24232-1)"/><text style="line-height:1.25" x="136.322" y="38.22" id="text6009-9" font-weight="400" font-size="10.583" font-family="sans-serif" letter-spacing="0" word-spacing="0" stroke-width=".265"><tspan id="tspan6007-3" x="136.322" y="38.22" fill="#fff">condition 2</tspan></text></g></svg>