<svg xmlns:osb="http://www.openswatchbook.org/uri/2009/osb" xmlns="http://www.w3.org/2000/svg" xmlns:xlink="http://www.w3.org/1999/xlink" width="400" height="400" viewBox="0 0 105.833 105.833" id="svg6464"><defs id="defs6458"><linearGradient xlink:href="#linearGradient4522" id="linearGradient4524" x1="31.003" y1="194.101" x2="101.028" y2="194.101" gradientUnits="userSpaceOnUse"/><linearGradient id="linearGradient4522" osb:paint="solid"><stop offset="0" id="stop4520" stop-color="#ac9cb7"/></linearGradient><linearGradient xlink:href="#linearGradient4522" id="linearGradient4534" gradientUnits="userSpaceOnUse" x1="31.003" y1="194.101" x2="101.028" y2="194.101" gradientTransform="translate(90.337 -17.64)"/></defs><g id="layer1" transform="translate(0 -191.167)" stroke="#5c3566"><g id="g4554" transform="matrix(.55993 .33484 -.36539 .51311 25.346 176.173)"><path id="rect4485" fill="#d5c0e1" stroke-width="1.656" stroke-miterlimit="1.3" d="M64.145 10.487h70.025v99.959H64.145z"/><text id="text4489" y="30.265" x="81.784" style="line-height:1.25" font-weight="400" font-size="10.583" font-family="sans-serif" letter-spacing="0" word-spacing="0" stroke-width=".265"><tspan y="30.265" x="81.784" id="tspan4487">Hello</tspan><tspan id="tspan4491" y="43.494" x="81.784">World!</tspan></text></g><g id="g4542" transform="matrix(.63226 -.19924 .21742 .5794 -41.682 156.64)"><path id="rect4512" fill="url(#linearGradient4524)" stroke-width="1.656" stroke-miterlimit="1.3" d="M31.003 144.122h70.025v99.959H31.003z"/><text style="line-height:1.25" x="48.643" y="163.9" id="text4518" font-weight="400" font-size="10.583" font-family="sans-serif" letter-spacing="0" word-spacing="0" stroke-width=".265"><tspan id="tspan4514" x="48.643" y="163.9">Hello</tspan><tspan x="48.643" y="177.129" id="tspan4516">World!</tspan></text></g><g id="g4548" transform="matrix(.6599 .09847 -.10745 .60474 -33.307 133.03)"><path id="rect4526" fill="url(#linearGradient4534)" stroke-width="1.656" stroke-miterlimit="1.3" d="M121.34 126.482h70.025v99.959H121.34z"/><text id="text4532" y="146.26" x="138.98" style="line-height:1.25" font-weight="400" font-size="10.583" font-family="sans-serif" letter-spacing="0" word-spacing="0" stroke-width=".265"><tspan y="146.26" x="138.98" id="tspan4528">Hello</tspan><tspan id="tspan4530" y="159.489" x="138.98">World!</tspan></text></g></g></svg>