<svg xmlns="http://www.w3.org/2000/svg" width="28" height="37.345" viewBox="0 0 28 37.345">
  <metadata><?xpacket begin="﻿" id="W5M0MpCehiHzreSzNTczkc9d"?>
<x:xmpmeta xmlns:x="adobe:ns:meta/" x:xmptk="Adobe XMP Core 5.6-c142 79.160924, 2017/07/13-01:06:39        ">
   <rdf:RDF xmlns:rdf="http://www.w3.org/1999/02/22-rdf-syntax-ns#">
      <rdf:Description rdf:about=""/>
   </rdf:RDF>
</x:xmpmeta>
                                                                                                    
                                                                                                    
                                                                                                    
                                                                                                    
                                                                                                    
                                                                                                    
                                                                                                    
                                                                                                    
                                                                                                    
                                                                                                    
                                                                                                    
                                                                                                    
                                                                                                    
                                                                                                    
                                                                                                    
                                                                                                    
                                                                                                    
                                                                                                    
                                                                                                    
                                                                                                    
                           
<?xpacket end="w"?></metadata>
<defs>
    <style>
      .cls-1 {
        fill: #fed136;
        fill-rule: evenodd;
      }
    </style>
  </defs>
  <path id="Icon-Locked" class="cls-1" d="M1029.68,978.633c5.16,0,9.34,3.656,9.34,8.166v19.831c0,4.51-4.18,8.17-9.34,8.17s-9.33-3.66-9.33-8.17V986.8C1020.35,982.289,1024.53,978.633,1029.68,978.633Zm0,4.666c2.58,0,4.67,1.568,4.67,3.5v8.166c0,1.934-2.09,3.5-4.67,3.5s-4.66-1.566-4.66-3.5V986.8C1025.02,984.867,1027.11,983.3,1029.68,983.3Zm-10.49,12.833h20.99a3.5,3.5,0,0,1,3.5,3.5v12.828a3.491,3.491,0,0,1-3.5,3.5h-20.99a3.491,3.491,0,0,1-3.5-3.5V999.632A3.5,3.5,0,0,1,1019.19,996.132Zm10.49,5.838a2.334,2.334,0,0,1,2.34,2.33v5.83a2.335,2.335,0,0,1-4.67,0v-5.83A2.332,2.332,0,0,1,1029.68,1001.97Zm0-2.338a4.664,4.664,0,1,1-4.66,4.668A4.667,4.667,0,0,1,1029.68,999.632Z" transform="translate(-1015.69 -978.625)"/>
</svg>
